<mxfile host="app.diagrams.net" modified="2023-12-03T22:20:39.110Z" agent="Mozilla/5.0 (X11; Linux x86_64; rv:120.0) Gecko/20100101 Firefox/120.0" etag="XWLLDqF188KkpSyhTZFs" version="22.1.5" type="device">
  <diagram name="Page-1" id="T9IhmCq0k8aLZKgSEMsv">
    <mxGraphModel dx="794" dy="782" grid="1" gridSize="10" guides="1" tooltips="1" connect="1" arrows="1" fold="1" page="1" pageScale="1" pageWidth="850" pageHeight="1100" math="0" shadow="0">
      <root>
        <mxCell id="0" />
        <mxCell id="1" parent="0" />
        <mxCell id="qQ46MEHjNaRR1WTVshwD-9" style="edgeStyle=orthogonalEdgeStyle;rounded=0;orthogonalLoop=1;jettySize=auto;html=1;strokeColor=default;" parent="1" source="qQ46MEHjNaRR1WTVshwD-1" target="qQ46MEHjNaRR1WTVshwD-8" edge="1">
          <mxGeometry relative="1" as="geometry" />
        </mxCell>
        <mxCell id="qQ46MEHjNaRR1WTVshwD-1" value="" style="rounded=1;whiteSpace=wrap;html=1;" parent="1" vertex="1">
          <mxGeometry x="260" y="40" width="280" height="120" as="geometry" />
        </mxCell>
        <mxCell id="qQ46MEHjNaRR1WTVshwD-2" value="" style="rounded=1;whiteSpace=wrap;html=1;fillColor=#1ba1e2;fontColor=#ffffff;strokeColor=#006EAF;" parent="1" vertex="1">
          <mxGeometry x="260" y="40" width="20" height="120" as="geometry" />
        </mxCell>
        <mxCell id="qQ46MEHjNaRR1WTVshwD-3" value="" style="rounded=1;whiteSpace=wrap;html=1;" parent="1" vertex="1">
          <mxGeometry x="310" y="70" width="120" height="60" as="geometry" />
        </mxCell>
        <mxCell id="qQ46MEHjNaRR1WTVshwD-4" value="" style="rounded=1;whiteSpace=wrap;html=1;" parent="1" vertex="1">
          <mxGeometry x="300" y="80" width="120" height="60" as="geometry" />
        </mxCell>
        <mxCell id="qQ46MEHjNaRR1WTVshwD-5" value="&lt;div&gt;React&lt;br&gt;&lt;/div&gt;&lt;div&gt;Components&lt;br&gt;&lt;/div&gt;" style="text;html=1;align=center;verticalAlign=middle;resizable=0;points=[];autosize=1;strokeColor=none;fillColor=none;" parent="1" vertex="1">
          <mxGeometry x="435" y="80" width="90" height="40" as="geometry" />
        </mxCell>
        <mxCell id="qQ46MEHjNaRR1WTVshwD-6" value="&lt;div&gt;Web&lt;/div&gt;&lt;div&gt;Browser&lt;/div&gt;" style="text;html=1;align=center;verticalAlign=middle;resizable=0;points=[];autosize=1;strokeColor=none;fillColor=none;" parent="1" vertex="1">
          <mxGeometry x="540" y="80" width="70" height="40" as="geometry" />
        </mxCell>
        <mxCell id="qQ46MEHjNaRR1WTVshwD-7" value="" style="rounded=1;whiteSpace=wrap;html=1;" parent="1" vertex="1">
          <mxGeometry x="240" y="350" width="320" height="240" as="geometry" />
        </mxCell>
        <mxCell id="qQ46MEHjNaRR1WTVshwD-11" style="edgeStyle=orthogonalEdgeStyle;rounded=0;orthogonalLoop=1;jettySize=auto;html=1;dashed=1;" parent="1" source="qQ46MEHjNaRR1WTVshwD-8" target="qQ46MEHjNaRR1WTVshwD-10" edge="1">
          <mxGeometry relative="1" as="geometry" />
        </mxCell>
        <mxCell id="qQ46MEHjNaRR1WTVshwD-8" value="" style="ellipse;whiteSpace=wrap;html=1;aspect=fixed;" parent="1" vertex="1">
          <mxGeometry x="390" y="200" width="20" height="20" as="geometry" />
        </mxCell>
        <mxCell id="qQ46MEHjNaRR1WTVshwD-14" style="edgeStyle=orthogonalEdgeStyle;rounded=0;orthogonalLoop=1;jettySize=auto;html=1;" parent="1" target="qQ46MEHjNaRR1WTVshwD-13" edge="1">
          <mxGeometry relative="1" as="geometry">
            <mxPoint x="400" y="270" as="sourcePoint" />
          </mxGeometry>
        </mxCell>
        <mxCell id="qQ46MEHjNaRR1WTVshwD-10" value="" style="ellipse;whiteSpace=wrap;html=1;aspect=fixed;" parent="1" vertex="1">
          <mxGeometry x="390" y="270" width="20" height="20" as="geometry" />
        </mxCell>
        <mxCell id="qQ46MEHjNaRR1WTVshwD-25" style="edgeStyle=orthogonalEdgeStyle;rounded=0;orthogonalLoop=1;jettySize=auto;html=1;" parent="1" source="qQ46MEHjNaRR1WTVshwD-13" target="qQ46MEHjNaRR1WTVshwD-21" edge="1">
          <mxGeometry relative="1" as="geometry" />
        </mxCell>
        <mxCell id="qQ46MEHjNaRR1WTVshwD-13" value="" style="whiteSpace=wrap;html=1;aspect=fixed;" parent="1" vertex="1">
          <mxGeometry x="390" y="340" width="20" height="20" as="geometry" />
        </mxCell>
        <mxCell id="qQ46MEHjNaRR1WTVshwD-15" value="" style="rounded=1;whiteSpace=wrap;html=1;fillColor=#1ba1e2;fontColor=#ffffff;strokeColor=#006EAF;" parent="1" vertex="1">
          <mxGeometry x="240" y="350" width="30" height="240" as="geometry" />
        </mxCell>
        <mxCell id="qQ46MEHjNaRR1WTVshwD-18" value="" style="rounded=1;whiteSpace=wrap;html=1;" parent="1" vertex="1">
          <mxGeometry x="280" y="440" width="260" height="140" as="geometry" />
        </mxCell>
        <mxCell id="qQ46MEHjNaRR1WTVshwD-19" value="" style="rounded=1;whiteSpace=wrap;html=1;fillColor=#1ba1e2;fontColor=#ffffff;strokeColor=#006EAF;" parent="1" vertex="1">
          <mxGeometry x="280" y="440" width="20" height="140" as="geometry" />
        </mxCell>
        <mxCell id="qQ46MEHjNaRR1WTVshwD-27" style="edgeStyle=orthogonalEdgeStyle;rounded=0;orthogonalLoop=1;jettySize=auto;html=1;" parent="1" source="qQ46MEHjNaRR1WTVshwD-21" target="qQ46MEHjNaRR1WTVshwD-26" edge="1">
          <mxGeometry relative="1" as="geometry" />
        </mxCell>
        <mxCell id="qQ46MEHjNaRR1WTVshwD-21" value="" style="whiteSpace=wrap;html=1;aspect=fixed;" parent="1" vertex="1">
          <mxGeometry x="390" y="430" width="20" height="20" as="geometry" />
        </mxCell>
        <mxCell id="qQ46MEHjNaRR1WTVshwD-34" style="edgeStyle=orthogonalEdgeStyle;rounded=0;orthogonalLoop=1;jettySize=auto;html=1;" parent="1" source="qQ46MEHjNaRR1WTVshwD-22" target="qQ46MEHjNaRR1WTVshwD-33" edge="1">
          <mxGeometry relative="1" as="geometry" />
        </mxCell>
        <mxCell id="qQ46MEHjNaRR1WTVshwD-41" value="API Call" style="edgeLabel;html=1;align=center;verticalAlign=middle;resizable=0;points=[];" parent="qQ46MEHjNaRR1WTVshwD-34" vertex="1" connectable="0">
          <mxGeometry x="0.465" y="-2" relative="1" as="geometry">
            <mxPoint y="-12" as="offset" />
          </mxGeometry>
        </mxCell>
        <mxCell id="qQ46MEHjNaRR1WTVshwD-22" value="" style="rounded=1;whiteSpace=wrap;html=1;" parent="1" vertex="1">
          <mxGeometry x="350" y="490" width="120" height="60" as="geometry" />
        </mxCell>
        <mxCell id="qQ46MEHjNaRR1WTVshwD-40" style="edgeStyle=orthogonalEdgeStyle;rounded=0;orthogonalLoop=1;jettySize=auto;html=1;" parent="1" source="qQ46MEHjNaRR1WTVshwD-23" target="qQ46MEHjNaRR1WTVshwD-37" edge="1">
          <mxGeometry relative="1" as="geometry" />
        </mxCell>
        <mxCell id="qQ46MEHjNaRR1WTVshwD-23" value="" style="rounded=1;whiteSpace=wrap;html=1;" parent="1" vertex="1">
          <mxGeometry x="340" y="500" width="120" height="60" as="geometry" />
        </mxCell>
        <mxCell id="qQ46MEHjNaRR1WTVshwD-24" value="&lt;div&gt;OpenStreetMap (Overpass API)&lt;br&gt;&lt;/div&gt;" style="rounded=1;whiteSpace=wrap;html=1;" parent="1" vertex="1">
          <mxGeometry x="663" y="490" width="120" height="60" as="geometry" />
        </mxCell>
        <mxCell id="qQ46MEHjNaRR1WTVshwD-26" value="" style="whiteSpace=wrap;html=1;aspect=fixed;" parent="1" vertex="1">
          <mxGeometry x="385" y="480" width="30" height="30" as="geometry" />
        </mxCell>
        <mxCell id="qQ46MEHjNaRR1WTVshwD-28" value="&lt;div&gt;App&lt;/div&gt;&lt;div&gt;Components&lt;br&gt;&lt;/div&gt;" style="text;html=1;align=center;verticalAlign=middle;resizable=0;points=[];autosize=1;strokeColor=none;fillColor=none;" parent="1" vertex="1">
          <mxGeometry x="440" y="450" width="90" height="40" as="geometry" />
        </mxCell>
        <mxCell id="qQ46MEHjNaRR1WTVshwD-29" value="Axum" style="text;html=1;align=center;verticalAlign=middle;resizable=0;points=[];autosize=1;strokeColor=none;fillColor=none;fontSize=21;" parent="1" vertex="1">
          <mxGeometry x="270" y="310" width="80" height="40" as="geometry" />
        </mxCell>
        <mxCell id="qQ46MEHjNaRR1WTVshwD-30" value="Web Framework API" style="text;html=1;align=center;verticalAlign=middle;resizable=0;points=[];autosize=1;strokeColor=none;fillColor=none;" parent="1" vertex="1">
          <mxGeometry x="425" y="320" width="130" height="30" as="geometry" />
        </mxCell>
        <mxCell id="qQ46MEHjNaRR1WTVshwD-31" value="&lt;div&gt;Tower / Hyper&lt;/div&gt;&lt;div&gt;components&lt;/div&gt;" style="text;html=1;align=center;verticalAlign=middle;resizable=0;points=[];autosize=1;strokeColor=none;fillColor=none;" parent="1" vertex="1">
          <mxGeometry x="415" y="390" width="100" height="40" as="geometry" />
        </mxCell>
        <mxCell id="qQ46MEHjNaRR1WTVshwD-33" value="" style="whiteSpace=wrap;html=1;aspect=fixed;" parent="1" vertex="1">
          <mxGeometry x="653" y="510" width="20" height="20" as="geometry" />
        </mxCell>
        <mxCell id="qQ46MEHjNaRR1WTVshwD-37" value="SQLite" style="rounded=1;whiteSpace=wrap;html=1;" parent="1" vertex="1">
          <mxGeometry x="40" y="500" width="120" height="60" as="geometry" />
        </mxCell>
      </root>
    </mxGraphModel>
  </diagram>
</mxfile>
